<svg xmlns="http://www.w3.org/2000/svg" xmlns:xlink="http://www.w3.org/1999/xlink" viewBox="0 0 1454.96 1454.96"><defs><style>.cls-1{isolation:isolate;}.cls-2{fill:#3e98f7;}.cls-3{fill:url(#linear-gradient);}.cls-4{fill:url(#linear-gradient-2);}.cls-5{fill:url(#Naamloos_verloop_12);}.cls-6{fill:#fff;}.cls-7{fill:url(#linear-gradient-3);}.cls-8{fill:url(#linear-gradient-4);}.cls-9{opacity:0.35;fill:url(#Naamloos_verloop_12-2);}.cls-10{mix-blend-mode:overlay;fill:url(#Naamloos_verloop_26);}.cls-11{fill:url(#Naamloos_verloop_12-3);}</style><linearGradient id="linear-gradient" x1="-381.31" y1="981.83" x2="800.07" y2="981.83" gradientUnits="userSpaceOnUse"><stop offset="0.27" stop-color="#f1f2f2"/><stop offset="0.35" stop-color="#edf0f2"/><stop offset="0.42" stop-color="#e1eaf2"/><stop offset="0.5" stop-color="#cee0f3"/><stop offset="0.57" stop-color="#b2d2f4"/><stop offset="0.65" stop-color="#8ec0f5"/><stop offset="0.72" stop-color="#64abf6"/><stop offset="0.78" stop-color="#3e98f7"/></linearGradient><linearGradient id="linear-gradient-2" x1="900.65" y1="333.04" x2="864.61" y2="128.66" gradientUnits="userSpaceOnUse"><stop offset="0.3" stop-color="#f1f2f2"/><stop offset="0.38" stop-color="#eaeef2"/><stop offset="0.49" stop-color="#d6e4f3"/><stop offset="0.63" stop-color="#b5d4f4"/><stop offset="0.79" stop-color="#87bdf5"/><stop offset="0.96" stop-color="#4da0f7"/><stop offset="1" stop-color="#3e98f7"/></linearGradient><linearGradient id="Naamloos_verloop_12" x1="1033.28" y1="447.79" x2="365.41" y2="447.79" gradientUnits="userSpaceOnUse"><stop offset="0" stop-color="#f1f2f2"/><stop offset="1" stop-color="#3e98f7"/></linearGradient><linearGradient id="linear-gradient-3" x1="1336.15" y1="649.8" x2="1167.41" y2="942.07" gradientUnits="userSpaceOnUse"><stop offset="0" stop-color="#f1f2f2"/><stop offset="0.14" stop-color="#edf0f2"/><stop offset="0.29" stop-color="#dfe9f2"/><stop offset="0.44" stop-color="#c9def3"/><stop offset="0.6" stop-color="#aacff4"/><stop offset="0.77" stop-color="#83bbf5"/><stop offset="0.93" stop-color="#53a3f6"/><stop offset="1" stop-color="#3e98f7"/></linearGradient><linearGradient id="linear-gradient-4" x1="1011.91" y1="385.39" x2="-5.77" y2="1403.07" gradientUnits="userSpaceOnUse"><stop offset="0.11" stop-color="#f1f2f2"/><stop offset="0.21" stop-color="#e8eef2"/><stop offset="0.36" stop-color="#d1e2f3"/><stop offset="0.56" stop-color="#aacef4"/><stop offset="0.79" stop-color="#75b4f5"/><stop offset="1" stop-color="#3e98f7"/></linearGradient><linearGradient id="Naamloos_verloop_12-2" x1="977.24" y1="909.56" x2="1221" y2="909.56" xlink:href="#Naamloos_verloop_12"/><linearGradient id="Naamloos_verloop_26" x1="1357.6" y1="363.68" x2="97.36" y2="1091.28" gradientUnits="userSpaceOnUse"><stop offset="0" stop-color="#808285"/><stop offset="0.55" stop-color="#4d4c4e"/><stop offset="1" stop-color="#231f20"/></linearGradient><linearGradient id="Naamloos_verloop_12-3" x1="229.06" y1="351.59" x2="834.02" y2="351.59" xlink:href="#Naamloos_verloop_12"/></defs><g class="cls-1"><g id="Layer_2" data-name="Layer 2"><g id="Laag_2" data-name="Laag 2"><circle class="cls-2" cx="727.48" cy="727.48" r="727.48"/><path class="cls-3" d="M507.56,576.78S315.56,497,235.18,582s14.39,456.21,226,578.69,485.34,260.12,485.34,260.12-123.6-475.93-58-670.69S507.56,576.78,507.56,576.78Z"/><path class="cls-4" d="M928.7,248.77s-55-22.08-91-29.42c5.73-9,11.61-18.45,16.6-26.58l-.54-.24S889.91,204.68,928.7,248.77Z"/><path class="cls-5" d="M723.14,387.34s59.87-19.11,130.16-9.6c131.48,27.89,137.11,142.75,137.11,142.75h0c-66.12-134.89-238-97.86-238-97.86h0Z"/><path class="cls-6" d="M308.24,599.05s3.05,97.43,28.62,123.27c0,0,27.33-57.72,124.31-97.4,0,0-71.17,194.81-17.95,339,0,0-79-46.51-60.37-236.59,0,0-37.16,45.66-45.1,99.47C337.75,826.78,260.86,720,308.24,599.05Z"/><path class="cls-7" d="M1322.37,653.14c1.38-.39-1.47.35,0,0,14.66,102.74-38.79,131-55.68,137.26C1238,709.38,1305.33,663.5,1322.37,653.14Z"/><path class="cls-6" d="M946.5,1420.83h0Z"/><path class="cls-6" d="M824.3,1336.7a289.36,289.36,0,0,1-20.29-30,249.33,249.33,0,0,1-17.17-34.47v0a.11.11,0,0,1,0-.06h0q0-.14-.09-.24a2,2,0,0,0-.08-.22,177,177,0,0,1-7.11-23.52c1.26.57,2.5,1.11,3.74,1.65,10.64,4.34,43.6,15.57,93.6,12.3q-4.35-3.61-8.42-7.26c-50.2-45.06-67.36-93.12-67.75-137.38-.41-45.57,17-87.11,34.33-117.14,17.16-29.67,34.33-48.12,34.33-48.12h0c-136,95.71-89.83,251.12-89.83,251.12a310.53,310.53,0,0,1-65-22.91C744.1,1391,888.34,1418,943.69,1420.72l2.82.11S878.56,1409.16,824.3,1336.7Z"/><path class="cls-8" d="M1134.9,587.15c8.56-6.74,15.45-7,19.17-6.7s15.07,4.13,31.62,8.23c61.94,15.31,104.48-8.23,104.48-8.23-20.56-29-56.88-61.09-89.32-86.83-14.31-11.36-27.86-21.46-39-29.51h0c-15.08-12-4.9-39.23-4.9-39.23h0A547.41,547.41,0,0,0,967.69,266.17c-1.82-24.24-8.55-47.09-16.75-66C940.22,175.45,927,157.46,919,152c-7.7-5.3-17.78-8.75-25.34-10.8A12.74,12.74,0,0,0,878.8,148c-3.75,7.9-8.29,16.26-12.46,23.59-6.76,11.85-12.58,21-12.58,21s36.15,12.15,74.94,56.24c0,0-55-22.08-91-29.42h0A565.61,565.61,0,0,0,552,229.55,111.15,111.15,0,0,0,572.52,271c-16-4.61-36.28-12.95-58.57-23.34-2-.9-3.92-1.84-5.91-2.78h0C425.25,205.57,319,140.88,307,133.53a761.65,761.65,0,0,0-68.63,55.38c3.91,17.23,22.94,96.83,43.17,140.42,0,0,20-43.24,52-71.3-43.26,128.37-37.1,256.2-37.1,256.2l.05.08a459.55,459.55,0,0,1-73.3-12.1,492.92,492.92,0,0,1-62.45-19.81c-4.28-1.71-6.59-2.74-6.59-2.74A546.51,546.51,0,0,0,8.61,620,733.28,733.28,0,0,0,.84,726.64c0,401.78,325.7,727.48,727.48,727.48a727.1,727.1,0,0,0,218.19-33.29l-2.82-.11C888.34,1418,744.1,1391,714.48,1180.42a310.53,310.53,0,0,0,65,22.91s-46.17-155.41,89.83-251.12h0S668.55,999.8,557.82,1165C572,1041.09,660.06,942.38,660.06,942.38c-144.14,29.09-218.19,116.37-218.19,116.37-72.74-36.93-110.21-142.58-110.21-142.58-139.11-122.65-33-301.71-23.42-317.12,0,0,3.05,97.43,28.62,123.27,0,0,27.33-57.72,124.31-97.4,0,0-71.17,194.81-17.95,339,0,0,122.4-109.12,420.88-145.34,0-1.06,0-2.09.06-3.12a123,123,0,0,1,1.56-16.67c.28-1.74.6-3.44,1-5.12.62-3,1.37-5.85,2.21-8.62a.41.41,0,0,1,0-.11,61,61,0,0,1,6.3-15.69,86.68,86.68,0,0,1,13.29-19.09c16.14-18.78,42-36.74,77.3-36.25,60.28.83,98.79-10,98.79-10-23.27,32.75-78.57,42.3-78.57,42.3,27.33,21.86,84.63,11.28,84.63,11.28-22.92,31.74-73.17,44.71-73.17,44.71,48.73,9.17,86.34,5,115.17-5.5l.31-.11a145.27,145.27,0,0,0,27.82-13.66c34-18.83,51-53.21,59.38-78.79a68.53,68.53,0,0,0,3-30.31,64.42,64.42,0,0,0-1.57-8c-2.16-7.8-8.5-23.2-25.09-25.6a40,40,0,0,0-4.54-.27,38.93,38.93,0,0,0-18.93,4.82s-28.9-16.46-37.83-24.83,0-19,0-19S1126.35,593.89,1134.9,587.15Zm-825.13,8.21.07-.22.05-.06ZM864.1,818.53Zm126.31-298s-125.19,55.54-238-97.86h0l-29.23-35.29s59.87-19.11,130.16-9.6c131.48,27.89,137.11,142.75,137.11,142.75Z"/><path class="cls-6" d="M1220.87,869.46l.05,0c-.07-1.61-.21-3.25-.42-4.93v-.07h0a61.22,61.22,0,0,0-9-25,31.33,31.33,0,0,0-39.67-14l-36,15-2.23.92c-14,5.68-91.34,34.67-149.3,7.83-2.39-1.11-4.75-2.3-7.07-3.6h0v0h0c45.62,108.2,129.21,93.51,163.87,81.76,4.93-1.81,10.15-3.92,15.71-6.42h0v0a14.67,14.67,0,0,1-2.09,3.4c-17.87,28.08-49.14,49.06-49.14,49.06a171.85,171.85,0,0,0,24.86-4.12c52-12.72,74.53-45.33,84.2-67.3C1218.73,892.77,1221.62,883.9,1220.87,869.46Z"/><path class="cls-9" d="M1220.5,864.5c-10.92-8.53-27.09-15-53.36-3.87-140.42,59.29-189.1-13.65-189.9-15,45.62,108.2,129.21,93.51,163.87,81.76,4.93-1.81,10.15-3.92,15.71-6.42h0v0a14.67,14.67,0,0,1-2.09,3.4c-17.87,28.08-49.14,49.06-49.14,49.06a171.85,171.85,0,0,0,24.86-4.12c52-12.72,74.53-45.33,84.2-67.3C1219.18,891.75,1222.25,882,1220.5,864.5Z"/><circle class="cls-10" cx="727.48" cy="727.48" r="727.48"/><path class="cls-6" d="M239.6,187.78h0l-.53.49Z"/><path class="cls-11" d="M296.44,514.25v0S290.27,386.4,333.53,258c-.73.64-1.46,1.3-2.18,2-30.72,28.07-49.84,69.35-49.84,69.35-20.23-43.58-39.25-123.15-43.16-140.4a731.33,731.33,0,0,0-64.83,67.14s18.24,142.69,42.32,181.72C215.84,437.79,260.49,493.84,296.44,514.25Z"/></g></g></g></svg>